<mxfile host="app.diagrams.net" modified="2024-02-10T08:41:57.935Z" agent="Mozilla/5.0 (Windows NT 10.0; Win64; x64) AppleWebKit/537.36 (KHTML, like Gecko) Chrome/121.0.0.0 Safari/537.36" etag="6frJnXO7P4lcVfw-h6gQ" version="23.1.2" type="github">
  <diagram name="Сторінка-1" id="nTbSs-eOX7MSh_iyYzCm">
    <mxGraphModel dx="1194" dy="1929" grid="1" gridSize="10" guides="1" tooltips="1" connect="1" arrows="1" fold="1" page="1" pageScale="1" pageWidth="827" pageHeight="1169" math="0" shadow="0">
      <root>
        <mxCell id="0" />
        <mxCell id="1" parent="0" />
        <mxCell id="OtCIeRJ54kRGpg4Z5k2t-1" value="Customer" style="swimlane;fontStyle=1;align=center;verticalAlign=top;childLayout=stackLayout;horizontal=1;startSize=26;horizontalStack=0;resizeParent=1;resizeParentMax=0;resizeLast=0;collapsible=1;marginBottom=0;whiteSpace=wrap;html=1;" vertex="1" parent="1">
          <mxGeometry x="400" y="-360" width="160" height="124" as="geometry" />
        </mxCell>
        <mxCell id="OtCIeRJ54kRGpg4Z5k2t-2" value="- customerName: String&lt;br&gt;- customerAdress: String&lt;br&gt;- customerNumber: String&lt;br&gt;" style="text;strokeColor=none;fillColor=none;align=left;verticalAlign=top;spacingLeft=4;spacingRight=4;overflow=hidden;rotatable=0;points=[[0,0.5],[1,0.5]];portConstraint=eastwest;whiteSpace=wrap;html=1;" vertex="1" parent="OtCIeRJ54kRGpg4Z5k2t-1">
          <mxGeometry y="26" width="160" height="64" as="geometry" />
        </mxCell>
        <mxCell id="OtCIeRJ54kRGpg4Z5k2t-3" value="" style="line;strokeWidth=1;fillColor=none;align=left;verticalAlign=middle;spacingTop=-1;spacingLeft=3;spacingRight=3;rotatable=0;labelPosition=right;points=[];portConstraint=eastwest;strokeColor=inherit;" vertex="1" parent="OtCIeRJ54kRGpg4Z5k2t-1">
          <mxGeometry y="90" width="160" height="8" as="geometry" />
        </mxCell>
        <mxCell id="OtCIeRJ54kRGpg4Z5k2t-4" value="+ method(type): type" style="text;strokeColor=none;fillColor=none;align=left;verticalAlign=top;spacingLeft=4;spacingRight=4;overflow=hidden;rotatable=0;points=[[0,0.5],[1,0.5]];portConstraint=eastwest;whiteSpace=wrap;html=1;" vertex="1" parent="OtCIeRJ54kRGpg4Z5k2t-1">
          <mxGeometry y="98" width="160" height="26" as="geometry" />
        </mxCell>
        <mxCell id="OtCIeRJ54kRGpg4Z5k2t-5" value="MenuItem" style="swimlane;fontStyle=1;align=center;verticalAlign=top;childLayout=stackLayout;horizontal=1;startSize=26;horizontalStack=0;resizeParent=1;resizeParentMax=0;resizeLast=0;collapsible=1;marginBottom=0;whiteSpace=wrap;html=1;" vertex="1" parent="1">
          <mxGeometry x="420" y="-120" width="190" height="160" as="geometry" />
        </mxCell>
        <mxCell id="OtCIeRJ54kRGpg4Z5k2t-6" value="- menuItemName : String&lt;br&gt;- quantity : int&lt;br&gt;- menuItemContents: String&amp;nbsp;&lt;br&gt;- menuItemWeight: double&lt;br&gt;- price: double" style="text;strokeColor=none;fillColor=none;align=left;verticalAlign=top;spacingLeft=4;spacingRight=4;overflow=hidden;rotatable=0;points=[[0,0.5],[1,0.5]];portConstraint=eastwest;whiteSpace=wrap;html=1;" vertex="1" parent="OtCIeRJ54kRGpg4Z5k2t-5">
          <mxGeometry y="26" width="190" height="84" as="geometry" />
        </mxCell>
        <mxCell id="OtCIeRJ54kRGpg4Z5k2t-7" value="" style="line;strokeWidth=1;fillColor=none;align=left;verticalAlign=middle;spacingTop=-1;spacingLeft=3;spacingRight=3;rotatable=0;labelPosition=right;points=[];portConstraint=eastwest;strokeColor=inherit;" vertex="1" parent="OtCIeRJ54kRGpg4Z5k2t-5">
          <mxGeometry y="110" width="190" height="8" as="geometry" />
        </mxCell>
        <mxCell id="OtCIeRJ54kRGpg4Z5k2t-8" value="+ method(type): type" style="text;strokeColor=none;fillColor=none;align=left;verticalAlign=top;spacingLeft=4;spacingRight=4;overflow=hidden;rotatable=0;points=[[0,0.5],[1,0.5]];portConstraint=eastwest;whiteSpace=wrap;html=1;" vertex="1" parent="OtCIeRJ54kRGpg4Z5k2t-5">
          <mxGeometry y="118" width="190" height="42" as="geometry" />
        </mxCell>
        <mxCell id="OtCIeRJ54kRGpg4Z5k2t-9" value="Menu" style="swimlane;fontStyle=1;align=center;verticalAlign=top;childLayout=stackLayout;horizontal=1;startSize=26;horizontalStack=0;resizeParent=1;resizeParentMax=0;resizeLast=0;collapsible=1;marginBottom=0;whiteSpace=wrap;html=1;" vertex="1" parent="1">
          <mxGeometry x="110" y="-120" width="190" height="130" as="geometry" />
        </mxCell>
        <mxCell id="OtCIeRJ54kRGpg4Z5k2t-10" value="- items: vector&amp;lt;MenuItem&amp;gt;" style="text;strokeColor=none;fillColor=none;align=left;verticalAlign=top;spacingLeft=4;spacingRight=4;overflow=hidden;rotatable=0;points=[[0,0.5],[1,0.5]];portConstraint=eastwest;whiteSpace=wrap;html=1;" vertex="1" parent="OtCIeRJ54kRGpg4Z5k2t-9">
          <mxGeometry y="26" width="190" height="26" as="geometry" />
        </mxCell>
        <mxCell id="OtCIeRJ54kRGpg4Z5k2t-11" value="" style="line;strokeWidth=1;fillColor=none;align=left;verticalAlign=middle;spacingTop=-1;spacingLeft=3;spacingRight=3;rotatable=0;labelPosition=right;points=[];portConstraint=eastwest;strokeColor=inherit;" vertex="1" parent="OtCIeRJ54kRGpg4Z5k2t-9">
          <mxGeometry y="52" width="190" height="8" as="geometry" />
        </mxCell>
        <mxCell id="OtCIeRJ54kRGpg4Z5k2t-12" value="+ method(type): type" style="text;strokeColor=none;fillColor=none;align=left;verticalAlign=top;spacingLeft=4;spacingRight=4;overflow=hidden;rotatable=0;points=[[0,0.5],[1,0.5]];portConstraint=eastwest;whiteSpace=wrap;html=1;" vertex="1" parent="OtCIeRJ54kRGpg4Z5k2t-9">
          <mxGeometry y="60" width="190" height="70" as="geometry" />
        </mxCell>
        <mxCell id="OtCIeRJ54kRGpg4Z5k2t-18" value="Order" style="swimlane;fontStyle=1;align=center;verticalAlign=top;childLayout=stackLayout;horizontal=1;startSize=26;horizontalStack=0;resizeParent=1;resizeParentMax=0;resizeLast=0;collapsible=1;marginBottom=0;whiteSpace=wrap;html=1;" vertex="1" parent="1">
          <mxGeometry x="120" y="-360" width="160" height="124" as="geometry" />
        </mxCell>
        <mxCell id="OtCIeRJ54kRGpg4Z5k2t-19" value="-&amp;nbsp;customer: Customer&amp;amp;&lt;br&gt;- paymentMethod: String&lt;br&gt;- items: vector&amp;lt;MenuItem&amp;gt;&lt;br&gt;&amp;nbsp;&lt;br&gt;+ orderState: String" style="text;strokeColor=none;fillColor=none;align=left;verticalAlign=top;spacingLeft=4;spacingRight=4;overflow=hidden;rotatable=0;points=[[0,0.5],[1,0.5]];portConstraint=eastwest;whiteSpace=wrap;html=1;" vertex="1" parent="OtCIeRJ54kRGpg4Z5k2t-18">
          <mxGeometry y="26" width="160" height="64" as="geometry" />
        </mxCell>
        <mxCell id="OtCIeRJ54kRGpg4Z5k2t-20" value="" style="line;strokeWidth=1;fillColor=none;align=left;verticalAlign=middle;spacingTop=-1;spacingLeft=3;spacingRight=3;rotatable=0;labelPosition=right;points=[];portConstraint=eastwest;strokeColor=inherit;" vertex="1" parent="OtCIeRJ54kRGpg4Z5k2t-18">
          <mxGeometry y="90" width="160" height="8" as="geometry" />
        </mxCell>
        <mxCell id="OtCIeRJ54kRGpg4Z5k2t-21" value="+ method(type): type" style="text;strokeColor=none;fillColor=none;align=left;verticalAlign=top;spacingLeft=4;spacingRight=4;overflow=hidden;rotatable=0;points=[[0,0.5],[1,0.5]];portConstraint=eastwest;whiteSpace=wrap;html=1;" vertex="1" parent="OtCIeRJ54kRGpg4Z5k2t-18">
          <mxGeometry y="98" width="160" height="26" as="geometry" />
        </mxCell>
        <mxCell id="OtCIeRJ54kRGpg4Z5k2t-23" value="" style="endArrow=open;html=1;endSize=12;startArrow=diamondThin;startSize=14;startFill=1;edgeStyle=orthogonalEdgeStyle;align=left;verticalAlign=bottom;rounded=0;" edge="1" parent="1">
          <mxGeometry x="-1" y="3" relative="1" as="geometry">
            <mxPoint x="280" y="-310" as="sourcePoint" />
            <mxPoint x="400" y="-300" as="targetPoint" />
            <Array as="points">
              <mxPoint x="280" y="-300" />
            </Array>
          </mxGeometry>
        </mxCell>
        <mxCell id="OtCIeRJ54kRGpg4Z5k2t-24" value="" style="endArrow=open;html=1;endSize=12;startArrow=diamondThin;startSize=14;startFill=1;edgeStyle=orthogonalEdgeStyle;align=left;verticalAlign=bottom;rounded=0;" edge="1" parent="1">
          <mxGeometry x="-1" y="3" relative="1" as="geometry">
            <mxPoint x="300" y="-60" as="sourcePoint" />
            <mxPoint x="420" y="-50" as="targetPoint" />
            <Array as="points">
              <mxPoint x="300" y="-50" />
            </Array>
          </mxGeometry>
        </mxCell>
      </root>
    </mxGraphModel>
  </diagram>
</mxfile>
